<?xml version="1.0" standalone="no"?>
<!DOCTYPE svg PUBLIC "-//W3C//DTD SVG 20010904//EN"
 "http://www.w3.org/TR/2001/REC-SVG-20010904/DTD/svg10.dtd">
<svg version="1.0" xmlns="http://www.w3.org/2000/svg"
 width="500.000000pt" height="500.000000pt" viewBox="0 0 500.000000 500.000000"
 preserveAspectRatio="xMidYMid meet">
<metadata>
Created by potrace 1.14, written by Peter Selinger 2001-2017
</metadata>
<g transform="translate(0.000000,500.000000) scale(0.100000,-0.100000)"
fill="#000000" stroke="none">
<path d="M2240 4974 c-514 -61 -977 -261 -1355 -586 -451 -389 -731 -885 -840
-1488 -30 -164 -40 -491 -20 -665 50 -454 218 -876 494 -1245 99 -133 318
-358 441 -452 374 -288 788 -460 1250 -519 165 -21 495 -16 659 10 808 128
1476 606 1849 1321 143 275 247 626 270 918 12 151 6 419 -12 557 -21 153 -79
390 -131 531 -81 222 -240 503 -395 699 -147 186 -414 423 -625 555 -288 180
-682 322 -990 356 -27 3 -61 8 -75 10 -62 12 -412 11 -520 -2z"/>
</g>
</svg>
